# xmcd CD database file
#
# Track frame offsets:
#	150
#	23235
#	48920
#	68782
#	87377
#	104267
#	124942
#	142212
#	162852
#	191077
#
# Disc length: 2799 seconds
#
# Revision: 0
# Processed by: cddbd v1.5PL3 Copyright (c) Steve Scherf et al.
# Submitted via: CDex 1.50beta10
#
DISCID=8d0aed0a
DTITLE=Chief Schabuttie Gilliame - Snakes Crawls At Night
DYEAR=2004
DGENRE=Blues
TTITLE0=Come To Me Baby
TTITLE1=Too Many Years
TTITLE2=No More Doggin'
TTITLE3=Happy With You Baby
TTITLE4=Sugar Daddy
TTITLE5=Big Legged Emma
TTITLE6=Lie To Me
TTITLE7=Snakes Crawls At Night
TTITLE8=Willie Brown Blues
TTITLE9=Lowdown Dirty Shame
EXTD=YEAR: 2004
EXTT0=
EXTT1=
EXTT2=
EXTT3=
EXTT4=
EXTT5=
EXTT6=
EXTT7=
EXTT8=
EXTT9=
PLAYORDER=
